<?xml version="1.0" encoding="utf-8" ?>
<svg xmlns="http://www.w3.org/2000/svg" xmlns:xlink="http://www.w3.org/1999/xlink" width="1024" height="1024">
	<path fill="#FAF9F9" d="M0 0L1024 0L1024 1024L0 1024L0 0Z"/>
	<path fill="#CECDCB" d="M936.678 511.573L952.938 511.597Q952.627 551.705 952.734 591.814L952.59 687.294C952.59 707.501 953.548 731.227 952.065 751.094C948.328 801.138 928.822 850.776 893.165 886.679C867.899 912.119 835.522 932.265 800.739 941.669C765.049 951.318 734.112 950.046 697.681 949.97L623.561 950.001L395.019 950.342L316.84 950.03C297.535 949.874 277.824 950.387 258.639 948.211Q256.471 947.961 254.308 947.666Q252.145 947.371 249.989 947.031Q247.833 946.691 245.684 946.307Q243.535 945.922 241.395 945.494Q239.255 945.065 237.124 944.592Q234.993 944.119 232.872 943.602Q230.752 943.085 228.642 942.524Q226.533 941.963 224.435 941.358Q222.338 940.754 220.253 940.106Q218.169 939.458 216.098 938.767Q214.028 938.076 211.972 937.343Q209.916 936.609 207.876 935.833Q205.836 935.057 203.812 934.239Q201.788 933.421 199.782 932.561Q197.776 931.701 195.788 930.8Q193.799 929.898 191.831 928.956Q189.862 928.014 187.913 927.031Q185.964 926.048 184.035 925.025Q182.107 924.002 180.201 922.939Q178.294 921.877 176.41 920.775Q174.526 919.672 172.665 918.532Q170.804 917.391 168.967 916.212Q167.13 915.033 165.318 913.816Q163.506 912.599 161.719 911.344Q159.933 910.09 158.172 908.799Q156.412 907.508 154.679 906.181Q152.946 904.854 151.241 903.491Q149.536 902.129 147.859 900.731Q146.183 899.333 144.536 897.901Q142.888 896.468 141.271 895.002Q139.654 893.536 138.068 892.037Q136.481 890.538 134.926 889.006Q133.264 887.359 131.638 885.675Q130.012 883.992 128.423 882.274Q126.835 880.555 125.284 878.803Q123.734 877.05 122.222 875.264Q120.71 873.477 119.237 871.658Q117.765 869.839 116.333 867.989Q114.9 866.138 113.509 864.256Q112.117 862.375 110.767 860.463Q109.417 858.551 108.11 856.611Q106.802 854.67 105.537 852.701Q104.272 850.732 103.05 848.736Q101.829 846.74 100.651 844.718Q99.4733 842.696 98.3402 840.648Q97.2071 838.6 96.1191 836.528Q95.0311 834.456 93.9886 832.361Q92.9462 830.266 91.9499 828.148Q90.9535 826.031 90.0038 823.892Q89.054 821.753 88.1513 819.594Q87.2486 817.435 86.3934 815.257Q85.5381 813.078 84.7307 810.882Q83.9234 808.685 83.1642 806.472Q82.4051 804.258 81.6946 802.028Q80.9841 799.798 80.3226 797.554Q79.6611 795.309 79.0488 793.05Q78.4366 790.791 77.8739 788.52Q77.3112 786.248 76.7984 783.965Q76.2856 781.682 75.8229 779.387Q75.3601 777.094 74.9477 774.79Q74.5353 772.486 74.1733 770.174Q73.8114 767.862 73.5002 765.543Q73.1889 763.223 72.9286 760.898Q72.6682 758.572 72.4587 756.241C71.1656 742.442 71.4584 728.608 71.4502 714.765L71.4515 658.348L71.3465 511.878L73.7298 511.855C78.0394 511.891 82.364 512.003 86.6717 511.87C85.9308 552.296 86.5233 592.818 86.4954 633.254L86.6527 695.498C86.79 723.874 86.3008 751.573 93.8419 779.219C102.83 812.171 121.99 843.826 145.623 868.329C189.402 913.719 240.108 932.967 302.712 933.945C337.481 934.487 372.309 933.829 407.086 933.843C455.207 933.862 503.364 934.367 551.48 933.876L670.361 933.679C702.008 933.581 739.724 936.279 770.356 929.848C785.382 926.693 799.574 921.392 813.609 915.258Q817.431 913.6 821.177 911.778Q824.924 909.956 828.588 907.974Q832.253 905.993 835.828 903.855Q839.404 901.716 842.883 899.426Q846.363 897.135 849.741 894.697Q853.119 892.258 856.388 889.676Q859.657 887.094 862.812 884.373Q865.967 881.652 869.001 878.798C887.207 861.379 899.814 844.709 911.587 822.558C941.623 766.049 936.264 719.112 936.158 657.738L936.456 553.232C936.545 539.523 936.278 525.884 936.577 512.169C931.146 512.208 924.385 512.95 919.201 511.618Q927.939 511.543 936.678 511.573Z"/>
	<path fill="#C5142E" d="M71.3465 511.878L71.4905 364.535L71.5036 307.49C71.5129 292.572 71.192 277.683 72.7493 262.822C77.7155 215.427 99.4726 167.986 133.441 134.396Q135.994 131.88 138.63 129.452Q141.267 127.025 143.983 124.687Q146.7 122.35 149.495 120.106Q152.289 117.861 155.158 115.713Q158.027 113.565 160.967 111.514Q163.906 109.464 166.914 107.515Q169.921 105.565 172.993 103.718Q176.064 101.872 179.196 100.13Q182.329 98.3879 185.518 96.753Q188.708 95.1181 191.95 93.5919Q195.193 92.0658 198.486 90.6501Q201.778 89.2345 205.117 87.931Q208.456 86.6276 211.836 85.4377Q215.217 84.2479 218.636 83.173Q222.055 82.0982 225.509 81.1396Q228.962 80.181 232.446 79.3397C265.65 71.615 296.66 73.3831 330.4 73.3936L426 73.4183L741.9 73.4468Q744.51 73.4587 747.118 73.535Q749.727 73.6113 752.333 73.7518Q754.939 73.8924 757.541 74.0971Q760.143 74.3019 762.739 74.5707Q765.334 74.8395 767.923 75.1723Q770.511 75.505 773.091 75.9014Q775.67 76.2979 778.239 76.7578Q780.808 77.2177 783.365 77.7408Q785.922 78.2639 788.465 78.8498Q791.008 79.4358 793.536 80.0842Q796.064 80.7327 798.575 81.4433Q801.087 82.1539 803.579 82.9262Q806.072 83.6984 808.545 84.5319Q811.019 85.3654 813.47 86.2596Q815.922 87.1538 818.351 88.1082Q820.78 89.0626 823.185 90.0765Q825.59 91.0905 827.969 92.1634Q830.348 93.2363 832.7 94.3676Q835.052 95.4988 837.375 96.6877Q839.698 97.8766 841.991 99.1224Q844.285 100.368 846.546 101.67Q848.808 102.972 851.037 104.329Q853.266 105.687 855.461 107.098Q857.656 108.51 859.816 109.976Q861.975 111.441 864.098 112.96Q866.22 114.478 868.305 116.048Q870.39 117.618 872.435 119.239Q874.48 120.86 876.485 122.531Q878.49 124.202 880.453 125.922Q882.415 127.642 884.335 129.41Q886.255 131.178 888.131 132.992Q890.007 134.807 891.837 136.667Q894.671 139.53 897.388 142.504Q900.106 145.478 902.704 148.557Q905.301 151.636 907.775 154.815Q910.248 157.995 912.593 161.27Q914.939 164.546 917.152 167.912Q919.365 171.278 921.444 174.729Q923.522 178.18 925.461 181.71Q927.401 185.241 929.199 188.846Q931.775 193.847 934.081 198.978Q936.387 204.108 938.417 209.355Q940.447 214.601 942.194 219.948Q943.942 225.295 945.402 230.728Q946.862 236.16 948.031 241.663Q949.199 247.165 950.074 252.722Q950.948 258.279 951.525 263.875Q952.102 269.471 952.38 275.089C953.002 287.139 952.652 299.318 952.616 311.385L952.486 370.763L952.938 511.597L936.678 511.573C937.457 501.853 936.61 491.9 936.568 482.149C936.464 458.369 936.041 434.589 936.163 410.81L936.58 335.54C936.636 316.335 937.246 296.968 935.152 277.852C930.619 236.468 911.852 194.607 884.918 163.006C851.427 123.713 801.641 94.6114 749.642 90.4902C736.832 89.475 723.988 89.8158 711.152 89.8728L664.5 89.8946L505.974 89.9166L360.792 90.002L316.623 90.0071C296.114 90.0133 276.287 90.0773 256.068 94.0706Q252.855 94.7265 249.665 95.4843Q246.475 96.2422 243.311 97.1012Q240.147 97.9602 237.011 98.9195Q233.876 99.8788 230.773 100.937Q227.67 101.996 224.602 103.153Q221.534 104.31 218.504 105.564Q215.475 106.818 212.487 108.168Q209.498 109.518 206.555 110.962Q203.611 112.406 200.715 113.943Q197.819 115.481 194.973 117.109Q192.128 118.738 189.335 120.456Q186.543 122.175 183.806 123.981Q181.07 125.788 178.393 127.68Q175.715 129.573 173.099 131.55Q170.484 133.527 167.932 135.586Q165.381 137.646 162.896 139.785C121.269 175.329 91.4647 232.365 87.375 287.181C86.5832 297.794 86.9029 308.611 86.8611 319.256Q86.7012 347.14 86.9086 375.022L86.9514 511.503C82.6318 511.475 77.99 511.105 73.7298 511.855L71.3465 511.878Z"/>
	<defs>
		<linearGradient id="gradient_0" gradientUnits="userSpaceOnUse" x1="671.25653" y1="661.33112" x2="893.98102" y2="850.0307">
			<stop offset="0" stop-color="#CECDCD"/>
			<stop offset="1" stop-color="#F3F2F0"/>
		</linearGradient>
	</defs>
	<path fill="url(#gradient_0)" d="M834.95 511.495L891.983 511.425C900.991 511.46 910.218 511.107 919.201 511.618C924.385 512.95 931.146 512.208 936.577 512.169C936.278 525.884 936.545 539.523 936.456 553.232L936.158 657.738C936.264 719.112 941.623 766.049 911.587 822.558C899.814 844.709 887.207 861.379 869.001 878.798Q865.967 881.652 862.812 884.373Q859.657 887.094 856.388 889.676Q853.119 892.258 849.741 894.697Q846.363 897.135 842.883 899.426Q839.404 901.716 835.828 903.855Q832.253 905.993 828.588 907.974Q824.924 909.956 821.177 911.778Q817.431 913.6 813.609 915.258C799.574 921.392 785.382 926.693 770.356 929.848C739.724 936.279 702.008 933.581 670.361 933.679L551.48 933.876C547.28 928.946 542.122 924.431 537.489 919.899Q522.759 905.434 507.739 891.27C501.331 885.183 493.074 878.363 488.353 870.848C501.094 876.429 510.939 877.566 524.681 877.708L702.09 877.824L755.997 877.738C767.218 877.68 779.195 878.398 790.252 876.372C800.514 874.492 809.429 869.893 816.841 862.539C825.298 854.15 831.586 843.368 833.706 831.58C835.74 820.267 834.644 807.732 834.612 796.229L834.577 738.225L834.95 511.495Z"/>
	<path fill="#FAF9F9" d="M86.6717 511.87L336.427 511.94L420.554 511.726C432.937 511.75 445.586 511.192 457.929 511.896L458.164 725.654L458.082 792.284C458.1 805.207 457.134 818.981 459.341 831.717C461.212 842.514 467.165 852.758 474.886 860.423C478.935 864.441 483.566 867.77 488.353 870.848C493.074 878.363 501.331 885.183 507.739 891.27Q522.759 905.434 537.489 919.899C542.122 924.431 547.28 928.946 551.48 933.876C503.364 934.367 455.207 933.862 407.086 933.843C372.309 933.829 337.481 934.487 302.712 933.945C240.108 932.967 189.402 913.719 145.623 868.329C121.99 843.826 102.83 812.171 93.8419 779.219C86.3008 751.573 86.79 723.874 86.6527 695.498L86.4954 633.254C86.5233 592.818 85.9308 552.296 86.6717 511.87Z"/>
	<path fill="#73040B" d="M457.929 511.896C457.153 484.011 457.693 455.902 457.686 427.988C457.681 410.417 462.803 394.317 475.49 381.731C483.256 374.028 493.733 367.989 504.557 365.986C515.291 364 527.192 364.625 538.095 364.58L586.047 364.435L771.858 364.467C790.487 364.495 803.747 366.862 817.458 380.815C825.398 388.893 831.551 400.252 834.023 411.303C836.616 422.896 835.227 437.714 835.176 449.696L834.95 511.495L834.577 738.225L834.612 796.229C834.644 807.732 835.74 820.267 833.706 831.58C831.586 843.368 825.298 854.15 816.841 862.539C809.429 869.893 800.514 874.492 790.252 876.372C779.195 878.398 767.218 877.68 755.997 877.738L702.09 877.824L524.681 877.708C510.939 877.566 501.094 876.429 488.353 870.848C483.566 867.77 478.935 864.441 474.886 860.423C467.165 852.758 461.212 842.514 459.341 831.717C457.134 818.981 458.1 805.207 458.082 792.284L458.164 725.654L457.929 511.896Z"/>
	<path fill="#FAF9F9" d="M515.828 381.196C525.364 380.071 541.284 380.961 551.586 380.957L628.068 380.912L731.294 380.802C746.475 380.843 767.054 379.886 781.71 381.533C788.347 382.279 795.297 385.685 800.67 389.596C809.886 396.307 816.684 406.603 818.212 418.022C819.445 427.23 818.524 443.671 818.513 453.64C818.48 481.994 817.903 510.347 818.058 538.699L818.075 706.428Q818.522 744.448 818.111 782.468C818.068 796.105 818.899 810.414 817.54 823.951C816.784 831.479 812.784 839.484 808.045 845.3C800.032 855.136 790.335 858.694 778.032 859.951L600.908 859.679L541.924 859.895C531.587 859.916 520.479 860.724 510.24 859.388C502.563 858.387 495.301 854.656 489.327 849.833C481.956 843.881 476.028 834.448 475.011 824.921C474.092 816.312 474.557 807.403 474.579 798.746L474.654 757.443L474.834 621.372L474.678 484.182L474.588 443.969C474.571 436.481 474.095 428.615 474.854 421.173Q475.025 419.605 475.307 418.053Q475.589 416.501 475.982 414.974Q476.374 413.446 476.875 411.95Q477.376 410.455 477.982 408.999Q478.588 407.542 479.297 406.133Q480.005 404.724 480.813 403.369Q481.62 402.014 482.522 400.721Q483.425 399.427 484.417 398.201C492.478 388.278 503.193 382.543 515.828 381.196Z"/>
	<path fill="#C5142E" d="M504.469 551.561C512.447 551.182 541.967 550.179 548.265 551.997C550.802 552.729 553.147 554.756 554.353 557.094C556.364 560.996 556.425 595.738 554.773 600.086C553.61 603.148 551.013 604.795 548.15 606.076C541.907 606.673 509.925 606.748 504.346 605.523C500.956 604.779 499.42 602.586 497.617 599.8C496.959 592.152 496.232 564.249 498.08 558.076C499.057 554.81 501.638 553.133 504.469 551.561Z"/>
	<path fill="#C5142E" d="M745.731 551.241C753.193 551.041 784.755 550.151 789.632 552.482C791.726 553.483 793.828 555.603 794.421 557.891C795.794 563.184 795.877 598.009 793.256 601.786C791.32 604.574 788.052 605.559 784.908 606.268C776.873 606.041 746.672 607.459 741.71 604.306C739.53 602.92 737.692 600.261 737.134 597.741C735.971 592.493 735.903 558.591 738.175 555.29C739.876 552.819 742.877 551.662 745.731 551.241Z"/>
	<path fill="#C5142E" d="M664.018 551.548C670.133 550.964 676.488 551.277 682.641 551.277C691.187 551.276 699.776 551.101 708.309 551.55C711.734 553.573 713.417 555.386 715.402 558.746C715.652 566.787 716.692 593.611 714.702 599.546C713.647 602.693 711.069 604.375 708.244 605.815C702.425 607.024 671.373 607.092 665.518 605.837C662.724 605.239 660.405 603.303 658.901 600.906Q658.383 600.09 658.035 599.19Q657.687 598.289 657.522 597.337C656.49 591.167 656.287 562.804 657.958 557.069C658.817 554.124 661.487 552.858 664.018 551.548Z"/>
	<path fill="#C5142E" d="M667.087 783.184C675.774 782.908 704.188 781.875 710.811 785.241C712.937 786.322 713.941 787.527 714.567 789.83C716.09 795.431 716.757 829.592 714.179 833.821C712.335 836.847 709.728 837.708 706.421 838.449C697.882 838.434 666.719 840.28 661.025 836.546C659.048 835.25 658.035 832.046 657.551 829.879C656.246 824.027 656.484 799.924 657.205 793.6C657.43 791.626 657.711 789.87 658.83 788.19C660.806 785.222 663.718 783.921 667.087 783.184Z"/>
	<path fill="#C5142E" d="M504.503 628.109C511.339 627.338 542.065 627.422 548.112 628.644C550.273 629.08 551.759 629.675 552.924 631.633C554.245 633.854 554.982 636.388 555.312 638.939C556.007 644.318 556.433 672.162 555.08 676.406C553.971 679.887 550.986 681.686 547.898 683.23C541.475 684.169 511.832 684.167 505.718 682.906C501.651 682.067 499.817 680.383 497.602 676.933C497.192 670.199 496.127 639.145 497.804 634.167C498.902 630.91 501.575 629.505 504.503 628.109Z"/>
	<path fill="#C5142E" d="M583.586 551.609C591.028 550.955 623.362 550.316 629.355 552.177C631.298 552.781 633.641 555.063 634.507 556.9C636.24 560.572 636.06 596.337 634.537 600.115C633.282 603.225 630.826 604.747 627.863 605.999C621.878 606.945 589.469 606.918 583.661 605.418C581.466 604.85 579.699 604.24 578.57 602.129C577.524 600.174 576.963 597.965 576.694 595.775C575.921 589.485 575.637 561.767 577.558 556.493C578.5 553.908 581.297 552.709 583.586 551.609Z"/>
	<path fill="#C5142E" d="M665.577 628.075C673.268 627.984 703.961 626.709 709.183 628.598C711.388 629.395 713.241 631.425 714.226 633.506C716.119 637.502 716.375 672.977 714.71 677.013C713.24 680.574 710.293 681.993 706.943 683.381C699.2 683.981 668.444 684.897 662.449 681.972C660.115 680.833 659.074 679.242 658.261 676.838C656.369 671.243 655.884 638.187 658.544 633.238C660.082 630.377 662.61 629.065 665.577 628.075Z"/>
	<path fill="#C5142E" d="M744.509 628.094C752.497 627.428 780.264 626.894 787.218 628.551C790.242 629.272 792.636 630.912 794.201 633.641C796.241 637.199 795.936 671.78 794.485 676.687C793.503 680.005 790.828 681.772 788.004 683.445C773.646 684.117 758.941 683.606 744.557 683.452C741.972 681.936 739.589 680.457 738.203 677.689C736.234 673.754 736.146 637.439 737.839 633.398C739.077 630.444 741.709 629.22 744.509 628.094Z"/>
	<path fill="#C5142E" d="M586.559 628.173C594.397 627.789 624.74 626.847 630.319 629.415C632.108 630.239 633.359 632.568 634.044 634.316C636.089 639.527 636.678 672.9 634.24 677.858C632.683 681.024 629.508 682.47 626.356 683.557Q613.705 683.511 601.055 683.61C596.602 683.627 591.74 684.023 587.332 683.396C585.208 683.093 583.149 682.472 581.3 681.366C578.711 679.818 577.563 677.832 576.969 674.924C576.116 670.744 576.104 643.259 576.697 638.575C576.974 636.387 577.474 634.214 578.795 632.403C580.709 629.778 583.48 628.741 586.559 628.173Z"/>
	<path fill="#C5142E" d="M664.894 705.116C673.141 704.735 701.741 704.025 708.127 705.917C710.448 706.605 712.788 707.692 713.867 709.985C714.803 711.974 715.192 714.324 715.413 716.494C716.023 722.48 716.422 749.867 714.518 754.531C713.197 757.767 710.455 759.547 707.35 760.823C700.635 762.237 669.977 762.377 663.933 760.256C661.399 759.366 659.089 757.303 657.964 754.852C656.229 751.073 656.542 714.672 658.346 710.685C659.682 707.734 662.014 706.317 664.894 705.116Z"/>
	<path fill="#C5142E" d="M585.049 705.095C593.049 704.698 623.532 703.708 629.376 705.745C631.827 706.599 633.6 708.883 634.634 711.179C636.397 715.092 636.326 750.921 634.325 755.28C632.856 758.481 629.378 759.851 626.285 760.928C619.699 761.171 587.249 761.597 582.527 759.74C580.395 758.901 578.222 756.349 577.375 754.258C576.106 751.12 576.391 719.244 576.886 714.194C577.011 712.928 577.307 711.732 577.901 710.602C579.47 707.62 581.94 706.128 585.049 705.095Z"/>
	<path fill="#C5142E" d="M505.374 782.575C515.19 781.834 532.199 781.609 542.187 782.283C546.085 782.546 550.969 783.584 553.522 786.843C554.853 788.542 555.317 791.081 555.576 793.166C556.117 797.526 555.679 802.219 555.7 806.632C555.738 815.076 556.214 823.773 555.402 832.175Q554.825 833.124 554.198 834.042C552.33 836.731 550.428 837.672 547.272 838.215C539.221 838.545 510.051 839.605 503.995 837.809C501.757 837.145 499.153 835.061 498.165 832.937C496.504 829.37 496.214 792.175 497.641 788.981C499.158 785.584 502.2 784.071 505.374 782.575Z"/>
	<path fill="#C5142E" d="M585.705 782.589C593.029 782.157 623.892 781.54 629.209 783.55C631.556 784.436 633.74 786.782 634.667 789.09C636.162 792.814 636.205 829.611 634.627 832.816C633.131 835.855 629.76 837.493 626.722 838.504C617.512 838.509 588.859 839.897 581.583 836.917C579.411 836.027 578.431 834.308 577.666 832.176C575.751 826.841 575.768 792.581 578.296 787.777C579.847 784.829 582.685 783.557 585.705 782.589Z"/>
	<path fill="#C5142E" d="M507.399 704.632C518.443 704.178 529.895 704.295 540.954 704.543C545.284 704.64 550.742 705.385 553.746 708.861C555.073 710.398 555.45 712.753 555.644 714.708C556.104 719.343 555.625 724.276 555.625 728.945C555.626 737.324 556.041 745.852 555.419 754.207C553.016 758.122 550.754 759.842 546.365 761.171C537.006 761.172 508.897 762.551 501.923 759.365C500.243 758.598 498.756 757.579 498.168 755.754C496.482 750.524 496.308 713.118 498.877 709.095C500.752 706.16 504.18 705.188 507.399 704.632Z"/>
	<path fill="#C5142E" d="M744.47 705.111C752.271 704.563 781.6 704.104 787.612 706.167C790.582 707.187 792.982 709.156 794.301 712.06C795.205 714.051 795.145 716.385 795.22 718.529C795.879 737.236 795.126 756.136 795.114 774.861C795.103 792.13 795.842 809.576 795.312 826.822C795.26 828.535 795.184 830.3 794.503 831.898C793.106 835.177 790.268 836.754 787.142 838.084C782.23 839.257 751.874 839.092 746.487 838.283C743.42 837.822 740.354 836.844 738.563 834.164Q738.117 833.51 737.765 832.801Q737.412 832.092 737.16 831.341Q736.909 830.591 736.762 829.813Q736.616 829.035 736.577 828.244C735.54 808.069 736.83 785.737 736.868 765.249L736.757 730.979C736.744 725.513 735.953 718.682 737.222 713.431C738.166 709.523 741.159 707.033 744.47 705.111Z"/>
	<path fill="#C5142E" d="M762.05 400.734L771.217 400.504C779.624 400.326 787.126 400.656 793.507 407.042C798.317 411.855 800.004 418.171 800.109 424.786C800.364 440.972 799.912 457.194 799.982 473.385C800.022 482.759 801.229 495.838 799.612 504.826C798.851 509.055 797.018 513.331 793.908 516.371C790.51 519.691 785.854 522.006 781.14 522.624C772.702 523.73 763.496 523.073 754.986 523.087L705.695 523.113L531.25 523.037C520.574 523.042 508.306 525.323 499.798 517.397C494.739 512.683 493.387 507.406 493.155 500.754C492.613 485.175 493.174 469.439 493.129 453.842C493.101 444.138 491.784 429.985 493.595 420.928C494.534 416.23 496.659 412.228 499.939 408.752C503.453 405.027 507.71 402.082 512.865 401.295C521.03 400.05 530.355 400.967 538.656 401.061Q561.143 401.347 583.632 401.339L658.115 401.103Q710.084 401.353 762.05 400.734Z"/>
	<path fill="#FAF9F9" d="M514.036 421.375C541.415 420.66 568.998 421.394 596.397 421.385L780.257 421.524C780.249 430.58 780.661 500.174 780.007 501.507C779.858 501.811 779.559 502.015 779.335 502.269L514.017 502.291L514.036 421.375Z"/>
	<defs>
		<linearGradient id="gradient_1" gradientUnits="userSpaceOnUse" x1="874.13519" y1="599.83337" x2="171.69905" y2="116.09284">
			<stop offset="0" stop-color="#B62E2D"/>
			<stop offset="1" stop-color="#D8534E"/>
		</linearGradient>
	</defs>
	<path fill="url(#gradient_1)" d="M86.9514 511.503L86.9086 375.022Q86.7013 347.139 86.8611 319.256C86.9029 308.611 86.5832 297.794 87.375 287.181C91.4647 232.365 121.269 175.329 162.896 139.785Q165.381 137.646 167.932 135.586Q170.484 133.527 173.099 131.55Q175.715 129.573 178.393 127.68Q181.07 125.788 183.806 123.981Q186.543 122.175 189.335 120.456Q192.128 118.738 194.973 117.109Q197.819 115.481 200.715 113.943Q203.611 112.406 206.555 110.962Q209.498 109.518 212.487 108.168Q215.475 106.818 218.504 105.564Q221.534 104.31 224.602 103.153Q227.67 101.996 230.773 100.937Q233.876 99.8788 237.011 98.9195Q240.147 97.9602 243.311 97.1012Q246.475 96.2422 249.665 95.4843Q252.855 94.7265 256.068 94.0706C276.287 90.0773 296.114 90.0133 316.623 90.0071L360.792 90.002L505.974 89.9166L664.5 89.8946L711.152 89.8728C723.988 89.8158 736.832 89.475 749.642 90.4902C801.641 94.6114 851.427 123.713 884.918 163.006C911.852 194.607 930.619 236.468 935.152 277.852C937.246 296.968 936.636 316.335 936.58 335.54L936.163 410.81C936.041 434.589 936.464 458.369 936.568 482.149C936.61 491.9 937.457 501.853 936.678 511.573Q927.939 511.543 919.201 511.618C910.218 511.107 900.991 511.46 891.983 511.425L834.95 511.495L835.176 449.696C835.227 437.714 836.616 422.896 834.023 411.303C831.551 400.252 825.398 388.893 817.458 380.815C803.747 366.862 790.487 364.495 771.858 364.467L586.047 364.435L538.095 364.58C527.192 364.625 515.291 364 504.557 365.986C493.733 367.989 483.256 374.028 475.49 381.731C462.803 394.317 457.681 410.417 457.686 427.988C457.693 455.902 457.153 484.011 457.929 511.896C445.586 511.192 432.937 511.75 420.554 511.726L336.427 511.94L86.6717 511.87C82.364 512.003 78.0394 511.891 73.7298 511.855C77.99 511.105 82.6318 511.475 86.9514 511.503Z"/>
	<path fill="#FAF9F9" d="M341.18 176.738C344.214 179.366 348.254 196.509 349.392 201.1Q362.38 200.899 375.37 201.009C368.899 206.567 361.741 211.678 354.536 216.242L363.247 242.379C358.745 239.245 344.234 226.989 340.727 226.218C333.59 231.98 326.088 237.289 318.672 242.684Q323.594 229.406 327.98 215.941C320.634 211.255 313.778 205.942 306.998 200.481C315.864 201.071 324.771 201.049 333.653 201.153Q337.262 188.898 341.18 176.738Z"/>
	<path fill="#FAF9F9" d="M413.201 224.789C415.021 226.421 420.086 246.409 420.98 249.987Q434.996 249.907 449.012 249.975C441.941 255.668 434.097 260.377 426.75 265.712Q431.529 278.485 435.58 291.507C427.968 286.193 420.838 280.171 412.97 275.223C406.124 281.21 398.524 286.46 391.316 292.014Q395.369 278.815 400.508 266C392.985 260.76 385.714 255.196 378.115 250.054L405.55 250.398C407.725 241.768 410.55 233.284 413.201 224.789Z"/>
	<path fill="#FAF9F9" d="M269.148 225.329C272.643 233.094 274.783 242.124 277.392 250.263Q291.293 249.852 305.2 249.949C297.648 255.044 291.043 261.396 283.098 265.936Q287.885 279.09 291.729 292.549C284.99 287.041 277.923 281.982 270.835 276.938L269.573 276.258C264.658 278.337 253.654 287.608 248.374 291.374C251.074 282.976 254.297 274.762 256.905 266.331C249.72 260.884 242.187 255.663 235.279 249.879L261.374 250.036C264.661 242.308 266.571 233.374 269.148 225.329Z"/>
	<path fill="#FAF9F9" d="M292.909 311.213C295.728 316.072 298.922 331.165 300.322 337.313C310.099 336.871 319.968 337.11 329.757 337.084C321.838 342.561 313.899 347.953 306.067 353.559C308.73 362.435 312.105 371.129 315.263 379.839C308.623 373.687 300.887 368.819 293.778 363.239L293.014 362.982C288.864 364.486 275.883 375.928 270.764 379.372Q275.399 366.655 279.838 353.868C272.977 347.659 264.014 342.775 256.345 337.534L285.11 337.467C287.397 328.636 290.231 319.931 292.909 311.213Z"/>
	<path fill="#FAF9F9" d="M389.248 312.291C391.413 314.162 397.114 333.565 398.103 337.507L426.553 337.486C419.091 343.382 411.22 348.745 403.529 354.336C406.779 362.667 409.608 371.201 412.603 379.629C405.55 374.023 398.073 368.851 390.806 363.521L389.557 363.195C384.651 364.924 372.93 376.269 367.951 380.149C370.645 371.359 373.433 362.72 376.976 354.229C369.438 348.362 361.943 342.622 353.815 337.587Q367.685 337.765 381.556 337.701C384.923 329.547 387.772 320.996 389.248 312.291Z"/>
	<path fill="#FAF9F9" d="M282.264 133.709C301.512 131.699 321.044 135.209 339.756 139.341C306.656 144.772 275.137 156.132 249.506 178.444Q248.139 179.623 246.801 180.835Q245.463 182.047 244.156 183.292Q242.848 184.536 241.572 185.812Q240.295 187.089 239.05 188.396Q237.805 189.703 236.593 191.041Q235.381 192.379 234.202 193.745Q233.022 195.112 231.877 196.508Q230.732 197.903 229.622 199.327Q228.511 200.75 227.436 202.2Q226.361 203.65 225.322 205.126Q224.282 206.602 223.28 208.103Q222.277 209.604 221.312 211.13Q220.346 212.655 219.419 214.204Q218.491 215.752 217.602 217.323Q216.713 218.894 215.862 220.487Q215.012 222.079 214.201 223.692Q213.39 225.305 212.619 226.937Q211.847 228.569 211.117 230.22Q210.386 231.87 209.696 233.538Q209.006 235.206 208.357 236.891Q207.708 238.576 207.101 240.276Q206.494 241.976 205.929 243.69Q205.363 245.405 204.84 247.132Q204.318 248.86 203.837 250.6Q203.357 252.34 202.92 254.092Q202.482 255.843 202.088 257.605Q201.694 259.366 201.343 261.137Q200.992 262.908 200.685 264.687Q200.378 266.466 200.115 268.252Q199.851 270.038 199.632 271.829Q199.413 273.621 199.237 275.418Q199.062 277.215 198.931 279.015Q198.803 280.817 198.72 282.621Q198.638 284.426 198.599 286.232Q198.561 288.037 198.568 289.844Q198.574 291.65 198.625 293.456Q198.676 295.261 198.772 297.065Q198.868 298.869 199.009 300.67Q199.149 302.471 199.334 304.267Q199.519 306.064 199.749 307.856Q199.978 309.648 200.252 311.433Q200.526 313.218 200.844 314.997Q201.161 316.775 201.523 318.544Q201.885 320.314 202.291 322.074Q202.696 323.835 203.145 325.584Q203.594 327.334 204.086 329.072Q204.578 330.81 205.113 332.535Q205.648 334.26 206.226 335.972Q206.803 337.683 207.423 339.38Q208.043 341.077 208.704 342.757Q209.366 344.438 210.069 346.102Q210.772 347.766 211.516 349.412Q212.26 351.058 213.044 352.685Q213.829 354.312 214.653 355.919Q215.478 357.527 216.342 359.113Q217.206 360.699 218.109 362.264Q219.012 363.828 219.953 365.37Q220.895 366.911 221.874 368.429Q222.853 369.947 223.87 371.44Q224.887 372.933 225.94 374.4Q226.993 375.868 228.083 377.309Q229.172 378.749 230.297 380.163Q231.421 381.576 232.58 382.962Q233.74 384.347 234.933 385.703C255.442 409.07 282.482 426.915 313.139 433.538C322.295 435.516 331.605 436.201 340.929 436.819C334.667 438.791 328.066 440.084 321.669 441.58Q309.701 444.177 297.493 445.157Q295.543 445.295 293.591 445.385Q291.638 445.475 289.684 445.517Q287.73 445.558 285.775 445.552Q283.821 445.545 281.867 445.489Q279.913 445.434 277.961 445.33Q276.009 445.226 274.06 445.074Q272.112 444.922 270.167 444.721Q268.223 444.521 266.284 444.272Q264.346 444.023 262.414 443.727Q260.482 443.43 258.558 443.086Q256.634 442.741 254.719 442.349Q252.804 441.957 250.899 441.518Q248.995 441.078 247.101 440.592Q245.208 440.105 243.328 439.572Q241.447 439.038 239.581 438.459Q237.714 437.879 235.862 437.253Q234.011 436.627 232.175 435.955Q230.339 435.284 228.521 434.567Q226.703 433.85 224.903 433.088Q223.103 432.326 221.322 431.52Q219.541 430.713 217.781 429.863Q216.021 429.013 214.283 428.12Q212.544 427.226 210.829 426.29Q209.113 425.353 207.421 424.375Q205.729 423.396 204.062 422.376Q202.395 421.355 200.753 420.294Q199.112 419.233 197.497 418.131Q195.883 417.029 194.296 415.888Q192.709 414.747 191.151 413.566Q189.593 412.386 188.065 411.167Q186.537 409.948 185.039 408.692Q183.542 407.436 182.076 406.143C151.413 379.603 130.949 339.756 128.106 299.142Q127.967 297.254 127.876 295.364Q127.784 293.474 127.74 291.582Q127.696 289.689 127.699 287.797Q127.702 285.904 127.753 284.012Q127.803 282.12 127.901 280.23Q127.999 278.34 128.144 276.453Q128.289 274.566 128.481 272.683Q128.673 270.8 128.912 268.923Q129.151 267.045 129.437 265.174Q129.723 263.304 130.056 261.44Q130.389 259.577 130.768 257.723Q131.147 255.869 131.572 254.025Q131.998 252.18 132.469 250.347Q132.941 248.514 133.458 246.694Q133.975 244.873 134.537 243.066Q135.099 241.259 135.707 239.466Q136.314 237.674 136.966 235.897Q137.618 234.12 138.314 232.36Q139.011 230.601 139.751 228.859Q140.491 227.117 141.274 225.394Q142.057 223.671 142.884 221.968Q143.71 220.265 144.578 218.584Q145.447 216.902 146.357 215.243Q147.267 213.583 148.219 211.947Q149.17 210.311 150.162 208.699Q151.154 207.088 152.186 205.501Q153.218 203.915 154.29 202.355Q155.361 200.794 156.471 199.261Q157.581 197.729 158.729 196.224Q159.877 194.719 161.063 193.244Q162.248 191.768 163.47 190.323Q164.691 188.877 165.949 187.463C195.649 153.435 237.948 136.657 282.264 133.709Z"/>
</svg>
